<svg xmlns="http://www.w3.org/2000/svg" width="380" height="200" viewBox="0 0 380 200">
  <rect width="380" height="200" fill="#161b22" rx="8"/>
  <rect x="1" y="1" width="378" height="198" rx="7" fill="none" stroke="#21262d" stroke-width="1"/>

  <circle cx="20" cy="22" r="5" fill="#378ADD"/>
  <text x="32" y="27" font-family="'Courier New',monospace" font-size="11" font-weight="700" fill="#85B7EB" letter-spacing="1">AUTOMATION</text>
  <line x1="16" y1="36" x2="364" y2="36" stroke="#21262d" stroke-width="1"/>

  <text x="16" y="60" font-family="'Courier New',monospace" font-size="11" fill="#c9d1d9">REST APIs</text>
  <rect x="150" y="51" width="170" height="6" rx="3" fill="#21262d"/>
  <rect x="150" y="51" width="148" height="6" rx="3" fill="#378ADD"/>
  <text x="328" y="60" font-family="'Courier New',monospace" font-size="10" fill="#85B7EB">strong</text>

  <text x="16" y="88" font-family="'Courier New',monospace" font-size="11" fill="#c9d1d9">Google Sheets</text>
  <rect x="150" y="79" width="170" height="6" rx="3" fill="#21262d"/>
  <rect x="150" y="79" width="141" height="6" rx="3" fill="#378ADD"/>
  <text x="328" y="88" font-family="'Courier New',monospace" font-size="10" fill="#85B7EB">strong</text>

  <text x="16" y="116" font-family="'Courier New',monospace" font-size="11" fill="#c9d1d9">Apps Script</text>
  <rect x="150" y="107" width="170" height="6" rx="3" fill="#21262d"/>
  <rect x="150" y="107" width="119" height="6" rx="3" fill="#378ADD"/>
  <text x="328" y="116" font-family="'Courier New',monospace" font-size="10" fill="#85B7EB">working</text>

  <text x="16" y="144" font-family="'Courier New',monospace" font-size="11" fill="#c9d1d9">Webhooks</text>
  <rect x="150" y="135" width="170" height="6" rx="3" fill="#21262d"/>
  <rect x="150" y="135" width="119" height="6" rx="3" fill="#378ADD"/>
  <text x="328" y="144" font-family="'Courier New',monospace" font-size="10" fill="#85B7EB">working</text>

  <text x="16" y="172" font-family="'Courier New',monospace" font-size="11" fill="#c9d1d9">n8n / Python</text>
  <rect x="150" y="163" width="170" height="6" rx="3" fill="#21262d"/>
  <rect x="150" y="163" width="85" height="6" rx="3" fill="#378ADD"/>
  <text x="328" y="172" font-family="'Courier New',monospace" font-size="10" fill="#85B7EB">building</text>
</svg>
